<?xml version="1.0" encoding="UTF-8" standalone="no"?>
<!DOCTYPE svg PUBLIC "-//W3C//DTD SVG 1.1//EN"
 "http://www.w3.org/Graphics/SVG/1.1/DTD/svg11.dtd">
<!-- Generated by graphviz version 2.40.1 (20161225.0304)
 -->
<!-- Title: G Pages: 1 -->
<svg width="304pt" height="254pt"
 viewBox="0.00 0.00 304.22 254.00" xmlns="http://www.w3.org/2000/svg" xmlns:xlink="http://www.w3.org/1999/xlink">
<g id="graph0" class="graph" transform="scale(1 1) rotate(0) translate(4 250)">
<title>G</title>
<polygon fill="#ffffff" stroke="transparent" points="-4,4 -4,-250 300.2183,-250 300.2183,4 -4,4"/>
<g id="clust1" class="cluster">
<title>cluster_Global</title>
<path fill="none" stroke="#c0c0c0" d="M20,-8C20,-8 276.2183,-8 276.2183,-8 282.2183,-8 288.2183,-14 288.2183,-20 288.2183,-20 288.2183,-226 288.2183,-226 288.2183,-232 282.2183,-238 276.2183,-238 276.2183,-238 20,-238 20,-238 14,-238 8,-232 8,-226 8,-226 8,-20 8,-20 8,-14 14,-8 20,-8"/>
<text text-anchor="middle" x="148.1091" y="-225.2" font-family="Times,serif" font-size="11.00" fill="#c0c0c0">Global</text>
</g>
<g id="clust2" class="cluster">
<title>cluster_\AustinHeap</title>
<path fill="none" stroke="#c0c0c0" d="M28,-16C28,-16 268.2183,-16 268.2183,-16 274.2183,-16 280.2183,-22 280.2183,-28 280.2183,-28 280.2183,-199 280.2183,-199 280.2183,-205 274.2183,-211 268.2183,-211 268.2183,-211 28,-211 28,-211 22,-211 16,-205 16,-199 16,-199 16,-28 16,-28 16,-22 22,-16 28,-16"/>
<text text-anchor="middle" x="148.1091" y="-198.2" font-family="Times,serif" font-size="11.00" fill="#c0c0c0">AustinHeap</text>
</g>
<g id="clust3" class="cluster">
<title>cluster_\AustinHeap\Security</title>
<path fill="none" stroke="#c0c0c0" d="M36,-24C36,-24 260.2183,-24 260.2183,-24 266.2183,-24 272.2183,-30 272.2183,-36 272.2183,-36 272.2183,-172 272.2183,-172 272.2183,-178 266.2183,-184 260.2183,-184 260.2183,-184 36,-184 36,-184 30,-184 24,-178 24,-172 24,-172 24,-36 24,-36 24,-30 30,-24 36,-24"/>
<text text-anchor="middle" x="148.1091" y="-171.2" font-family="Times,serif" font-size="11.00" fill="#c0c0c0">Security</text>
</g>
<g id="clust4" class="cluster">
<title>cluster_\AustinHeap\Security\Txt</title>
<path fill="none" stroke="#c0c0c0" d="M44,-32C44,-32 252.2183,-32 252.2183,-32 258.2183,-32 264.2183,-38 264.2183,-44 264.2183,-44 264.2183,-145 264.2183,-145 264.2183,-151 258.2183,-157 252.2183,-157 252.2183,-157 44,-157 44,-157 38,-157 32,-151 32,-145 32,-145 32,-44 32,-44 32,-38 38,-32 44,-32"/>
<text text-anchor="middle" x="148.1091" y="-144.2" font-family="Times,serif" font-size="11.00" fill="#c0c0c0">Txt</text>
</g>
<!-- \\AustinHeap\\Security\\Txt\\Writer -->
<g id="node1" class="node">
<title>\\AustinHeap\\Security\\Txt\\Writer</title>
<polygon fill="none" stroke="#000000" points="256.0229,-130 200.8072,-130 200.8072,-94 256.0229,-94 256.0229,-130"/>
<text text-anchor="middle" x="228.415" y="-108.7" font-family="Courier,monospace" font-size="11.00" fill="#000000">Writer</text>
</g>
<!-- \\AustinHeap\\Security\\Txt\\SecurityTxt -->
<g id="node2" class="node">
<title>\\AustinHeap\\Security\\Txt\\SecurityTxt</title>
<polygon fill="none" stroke="#000000" points="128.4186,-103 40.1932,-103 40.1932,-67 128.4186,-67 128.4186,-103"/>
<text text-anchor="middle" x="84.3059" y="-81.7" font-family="Courier,monospace" font-size="11.00" fill="#000000">SecurityTxt</text>
</g>
<!-- \\AustinHeap\\Security\\Txt\\Writer&#45;&gt;\\AustinHeap\\Security\\Txt\\SecurityTxt -->
<g id="edge1" class="edge">
<title>\\AustinHeap\\Security\\Txt\\Writer&#45;&gt;\\AustinHeap\\Security\\Txt\\SecurityTxt</title>
<path fill="none" stroke="#000000" d="M200.6293,-106.7941C182.9774,-103.4869 159.5383,-99.0954 138.3273,-95.1213"/>
<polygon fill="none" stroke="#000000" points="138.9227,-91.6721 128.4491,-93.2706 137.6335,-98.5523 138.9227,-91.6721"/>
</g>
<!-- \\AustinHeap\\Security\\Txt\\Reader -->
<g id="node3" class="node">
<title>\\AustinHeap\\Security\\Txt\\Reader</title>
<polygon fill="none" stroke="#000000" points="256.0229,-76 200.8072,-76 200.8072,-40 256.0229,-40 256.0229,-76"/>
<text text-anchor="middle" x="228.415" y="-54.7" font-family="Courier,monospace" font-size="11.00" fill="#000000">Reader</text>
</g>
<!-- \\AustinHeap\\Security\\Txt\\Reader&#45;&gt;\\AustinHeap\\Security\\Txt\\SecurityTxt -->
<g id="edge2" class="edge">
<title>\\AustinHeap\\Security\\Txt\\Reader&#45;&gt;\\AustinHeap\\Security\\Txt\\SecurityTxt</title>
<path fill="none" stroke="#000000" d="M200.6293,-63.2059C182.9774,-66.5131 159.5383,-70.9046 138.3273,-74.8787"/>
<polygon fill="none" stroke="#000000" points="137.6335,-71.4477 128.4491,-76.7294 138.9227,-78.3279 137.6335,-71.4477"/>
</g>
</g>
</svg>
