<?xml version="1.0" encoding="UTF-8" standalone="no"?>
<!DOCTYPE svg PUBLIC "-//W3C//DTD SVG 1.1//EN"
 "http://www.w3.org/Graphics/SVG/1.1/DTD/svg11.dtd">
<!-- Generated by graphviz version 2.40.1 (20161225.0304)
 -->
<!-- Title: G Pages: 1 -->
<svg width="592pt" height="497pt"
 viewBox="0.00 0.00 591.65 497.00" xmlns="http://www.w3.org/2000/svg" xmlns:xlink="http://www.w3.org/1999/xlink">
<g id="graph0" class="graph" transform="scale(1 1) rotate(0) translate(4 493)">
<title>G</title>
<polygon fill="#ffffff" stroke="transparent" points="-4,4 -4,-493 587.6494,-493 587.6494,4 -4,4"/>
<g id="clust1" class="cluster">
<title>cluster_Global</title>
<path fill="none" stroke="#c0c0c0" d="M20,-8C20,-8 563.6494,-8 563.6494,-8 569.6494,-8 575.6494,-14 575.6494,-20 575.6494,-20 575.6494,-469 575.6494,-469 575.6494,-475 569.6494,-481 563.6494,-481 563.6494,-481 20,-481 20,-481 14,-481 8,-475 8,-469 8,-469 8,-20 8,-20 8,-14 14,-8 20,-8"/>
<text text-anchor="middle" x="291.8247" y="-468.2" font-family="Times,serif" font-size="11.00" fill="#c0c0c0">Global</text>
</g>
<g id="clust2" class="cluster">
<title>cluster_\AustinHeap</title>
<path fill="none" stroke="#c0c0c0" d="M28,-16C28,-16 555.6494,-16 555.6494,-16 561.6494,-16 567.6494,-22 567.6494,-28 567.6494,-28 567.6494,-442 567.6494,-442 567.6494,-448 561.6494,-454 555.6494,-454 555.6494,-454 28,-454 28,-454 22,-454 16,-448 16,-442 16,-442 16,-28 16,-28 16,-22 22,-16 28,-16"/>
<text text-anchor="middle" x="291.8247" y="-441.2" font-family="Times,serif" font-size="11.00" fill="#c0c0c0">AustinHeap</text>
</g>
<g id="clust3" class="cluster">
<title>cluster_\AustinHeap\Security</title>
<path fill="none" stroke="#c0c0c0" d="M36,-24C36,-24 547.6494,-24 547.6494,-24 553.6494,-24 559.6494,-30 559.6494,-36 559.6494,-36 559.6494,-415 559.6494,-415 559.6494,-421 553.6494,-427 547.6494,-427 547.6494,-427 36,-427 36,-427 30,-427 24,-421 24,-415 24,-415 24,-36 24,-36 24,-30 30,-24 36,-24"/>
<text text-anchor="middle" x="291.8247" y="-414.2" font-family="Times,serif" font-size="11.00" fill="#c0c0c0">Security</text>
</g>
<g id="clust4" class="cluster">
<title>cluster_\AustinHeap\Security\Txt</title>
<path fill="none" stroke="#c0c0c0" d="M44,-32C44,-32 539.6494,-32 539.6494,-32 545.6494,-32 551.6494,-38 551.6494,-44 551.6494,-44 551.6494,-388 551.6494,-388 551.6494,-394 545.6494,-400 539.6494,-400 539.6494,-400 44,-400 44,-400 38,-400 32,-394 32,-388 32,-388 32,-44 32,-44 32,-38 38,-32 44,-32"/>
<text text-anchor="middle" x="291.8247" y="-387.2" font-family="Times,serif" font-size="11.00" fill="#c0c0c0">Txt</text>
</g>
<g id="clust5" class="cluster">
<title>cluster_\AustinHeap\Security\Txt\Directives</title>
<path fill="none" stroke="#c0c0c0" d="M424.6333,-140C424.6333,-140 531.6494,-140 531.6494,-140 537.6494,-140 543.6494,-146 543.6494,-152 543.6494,-152 543.6494,-361 543.6494,-361 543.6494,-367 537.6494,-373 531.6494,-373 531.6494,-373 424.6333,-373 424.6333,-373 418.6333,-373 412.6333,-367 412.6333,-361 412.6333,-361 412.6333,-152 412.6333,-152 412.6333,-146 418.6333,-140 424.6333,-140"/>
<text text-anchor="middle" x="478.1414" y="-360.2" font-family="Times,serif" font-size="11.00" fill="#c0c0c0">Directives</text>
</g>
<!-- \\AustinHeap\\Security\\Txt\\Directives\\Encryption -->
<g id="node1" class="node">
<title>\\AustinHeap\\Security\\Txt\\Directives\\Encryption</title>
<polygon fill="none" stroke="#000000" points="519.1521,-346 437.1306,-346 437.1306,-310 519.1521,-310 519.1521,-346"/>
<text text-anchor="middle" x="478.1414" y="-324.7" font-family="Courier,monospace" font-size="11.00" fill="#000000">Encryption</text>
</g>
<!-- \\AustinHeap\\Security\\Txt\\Directives\\Acknowledgement -->
<g id="node2" class="node">
<title>\\AustinHeap\\Security\\Txt\\Directives\\Acknowledgement</title>
<polygon fill="none" stroke="#000000" points="535.6575,-292 420.6252,-292 420.6252,-256 535.6575,-256 535.6575,-292"/>
<text text-anchor="middle" x="478.1414" y="-270.7" font-family="Courier,monospace" font-size="11.00" fill="#000000">Acknowledgement</text>
</g>
<!-- \\AustinHeap\\Security\\Txt\\Directives\\Disclosure -->
<g id="node3" class="node">
<title>\\AustinHeap\\Security\\Txt\\Directives\\Disclosure</title>
<polygon fill="none" stroke="#000000" points="519.1521,-238 437.1306,-238 437.1306,-202 519.1521,-202 519.1521,-238"/>
<text text-anchor="middle" x="478.1414" y="-216.7" font-family="Courier,monospace" font-size="11.00" fill="#000000">Disclosure</text>
</g>
<!-- \\AustinHeap\\Security\\Txt\\Directives\\Contact -->
<g id="node4" class="node">
<title>\\AustinHeap\\Security\\Txt\\Directives\\Contact</title>
<polygon fill="none" stroke="#000000" points="509.3492,-184 446.9335,-184 446.9335,-148 509.3492,-148 509.3492,-184"/>
<text text-anchor="middle" x="478.1414" y="-162.7" font-family="Courier,monospace" font-size="11.00" fill="#000000">Contact</text>
</g>
<!-- \\AustinHeap\\Security\\Txt\\Writer -->
<g id="node5" class="node">
<title>\\AustinHeap\\Security\\Txt\\Writer</title>
<polygon fill="none" stroke="#000000" points="505.7492,-130 450.5335,-130 450.5335,-94 505.7492,-94 505.7492,-130"/>
<text text-anchor="middle" x="478.1414" y="-108.7" font-family="Courier,monospace" font-size="11.00" fill="#000000">Writer</text>
</g>
<!-- \\AustinHeap\\Security\\Txt\\SecurityTxt -->
<g id="node6" class="node">
<title>\\AustinHeap\\Security\\Txt\\SecurityTxt</title>
<polygon fill="none" stroke="#000000" points="348.4401,-104 260.2147,-104 260.2147,-68 348.4401,-68 348.4401,-104"/>
<text text-anchor="middle" x="304.3274" y="-82.7" font-family="Courier,monospace" font-size="11.00" fill="#000000">SecurityTxt</text>
</g>
<!-- \\AustinHeap\\Security\\Txt\\Writer&#45;&gt;\\AustinHeap\\Security\\Txt\\SecurityTxt -->
<g id="edge1" class="edge">
<title>\\AustinHeap\\Security\\Txt\\Writer&#45;&gt;\\AustinHeap\\Security\\Txt\\SecurityTxt</title>
<path fill="none" stroke="#000000" d="M450.2151,-107.8227C425.5571,-104.1342 388.9049,-98.6515 358.5078,-94.1046"/>
<polygon fill="none" stroke="#000000" points="358.8732,-90.6204 348.4654,-92.6024 357.8376,-97.5434 358.8732,-90.6204"/>
</g>
<!-- \\AustinHeap\\Security\\Txt\\SecurityTxtInterface -->
<g id="node8" class="node">
<title>\\AustinHeap\\Security\\Txt\\SecurityTxtInterface</title>
<polygon fill="none" stroke="#000000" points="188.0322,-104 39.9893,-104 39.9893,-68 188.0322,-68 188.0322,-104"/>
<text text-anchor="middle" x="114.0107" y="-82.7" font-family="Courier,monospace" font-size="11.00" fill="#000000">SecurityTxtInterface</text>
</g>
<!-- \\AustinHeap\\Security\\Txt\\Writer&#45;&gt;\\AustinHeap\\Security\\Txt\\SecurityTxtInterface -->
<g id="edge2" class="edge">
<title>\\AustinHeap\\Security\\Txt\\Writer&#45;&gt;\\AustinHeap\\Security\\Txt\\SecurityTxtInterface</title>
<path fill="none" stroke="#000000" stroke-dasharray="1,5" d="M450.3523,-112.2766C424.1276,-112.5229 383.7092,-112.8646 348.6333,-113 309.2506,-113.152 299.24,-116.5956 260.0215,-113 239.9273,-111.1577 218.4705,-107.9178 198.363,-104.3071"/>
<polygon fill="none" stroke="#000000" points="198.7693,-100.8231 188.3002,-102.4503 197.499,-107.7069 198.7693,-100.8231"/>
</g>
<!-- \\AustinHeap\\Security\\Txt\\SecurityTxt&#45;&gt;\\AustinHeap\\Security\\Txt\\SecurityTxtInterface -->
<g id="edge3" class="edge">
<title>\\AustinHeap\\Security\\Txt\\SecurityTxt&#45;&gt;\\AustinHeap\\Security\\Txt\\SecurityTxtInterface</title>
<path fill="none" stroke="#000000" stroke-dasharray="1,5" d="M260.1866,-86C241.7016,-86 219.57,-86 198.188,-86"/>
<polygon fill="none" stroke="#000000" points="198.103,-82.5001 188.103,-86 198.103,-89.5001 198.103,-82.5001"/>
</g>
<!-- \\AustinHeap\\Security\\Txt\\Reader -->
<g id="node7" class="node">
<title>\\AustinHeap\\Security\\Txt\\Reader</title>
<polygon fill="none" stroke="#000000" points="505.7492,-76 450.5335,-76 450.5335,-40 505.7492,-40 505.7492,-76"/>
<text text-anchor="middle" x="478.1414" y="-54.7" font-family="Courier,monospace" font-size="11.00" fill="#000000">Reader</text>
</g>
<!-- \\AustinHeap\\Security\\Txt\\Reader&#45;&gt;\\AustinHeap\\Security\\Txt\\SecurityTxt -->
<g id="edge4" class="edge">
<title>\\AustinHeap\\Security\\Txt\\Reader&#45;&gt;\\AustinHeap\\Security\\Txt\\SecurityTxt</title>
<path fill="none" stroke="#000000" d="M450.2151,-62.4987C425.5571,-66.4709 388.9049,-72.3753 358.5078,-77.272"/>
<polygon fill="none" stroke="#000000" points="357.7814,-73.8438 348.4654,-78.8897 358.8948,-80.7547 357.7814,-73.8438"/>
</g>
<!-- \\AustinHeap\\Security\\Txt\\Reader&#45;&gt;\\AustinHeap\\Security\\Txt\\SecurityTxtInterface -->
<g id="edge5" class="edge">
<title>\\AustinHeap\\Security\\Txt\\Reader&#45;&gt;\\AustinHeap\\Security\\Txt\\SecurityTxtInterface</title>
<path fill="none" stroke="#000000" stroke-dasharray="1,5" d="M450.5183,-56.5556C409.0431,-54.7418 328.2626,-52.5858 260.0215,-59 239.9315,-60.8883 218.4764,-64.1462 198.3692,-67.7595"/>
<polygon fill="none" stroke="#000000" points="197.5051,-64.3597 188.3064,-69.6164 198.7755,-71.2435 197.5051,-64.3597"/>
</g>
</g>
</svg>
